<svg version="1.1" id="Layer_1" xmlns="http://www.w3.org/2000/svg" xmlns:xlink="http://www.w3.org/1999/xlink" x="0px" y="0px"
	 width="100%" viewBox="0 0 512 268" enable-background="new 0 0 512 268" xml:space="preserve">
<path fill="#FAFBFB" opacity="1.000000" stroke="none" 
	d="
M343.000000,269.000000 
	C228.666672,269.000000 114.833336,269.000000 1.000000,269.000000 
	C1.000000,179.666672 1.000000,90.333336 1.000000,1.000000 
	C171.666672,1.000000 342.333344,1.000000 513.000000,1.000000 
	C513.000000,90.333336 513.000000,179.666672 513.000000,269.000000 
	C456.500000,269.000000 400.000000,269.000000 343.000000,269.000000 
M298.313812,181.264511 
	C297.562653,183.884964 292.289032,184.465057 294.785065,188.430923 
	C297.159943,192.204269 297.167480,198.384293 303.840149,198.872894 
	C303.159729,202.714066 301.231567,206.693527 304.872437,210.841507 
	C304.707489,212.220322 304.542511,213.599136 304.086151,215.354568 
	C303.975647,215.694717 304.048950,215.989136 304.366760,217.116272 
	C304.366760,222.646561 304.366760,228.176849 304.366760,233.853134 
	C307.802307,233.853134 310.390991,233.853134 313.911530,233.982880 
	C321.873962,233.982880 329.836395,233.982880 338.770508,233.982880 
	C339.772430,226.652130 340.771484,219.342407 342.461029,211.642609 
	C342.947083,210.177460 344.089355,208.575531 343.816925,207.268478 
	C341.315887,195.268784 344.592834,183.957779 347.130280,172.422913 
	C349.110046,163.423096 350.366150,154.162964 350.818054,144.963226 
	C351.126465,138.684036 348.963135,132.531387 343.902863,127.148209 
	C343.597412,124.367798 343.009033,121.576721 343.113403,118.811775 
	C343.161041,117.548828 344.291443,115.728935 345.416290,115.206047 
	C350.808441,112.699509 351.320312,111.226120 348.072662,105.128288 
	C350.863373,97.645157 348.167023,89.757721 341.508514,86.273743 
	C340.533020,85.763321 338.962128,85.288185 338.166870,85.719307 
	C333.835327,88.067497 329.749969,86.199806 325.968933,84.780388 
	C321.091827,82.949516 317.838104,84.777084 315.347687,88.352173 
	C312.616852,92.272369 314.510284,95.494400 318.013641,98.837914 
	C318.082336,104.509857 317.971710,110.191116 318.265442,115.851379 
	C318.627197,122.822884 321.801605,125.675461 328.977112,126.673164 
	C328.994263,127.116676 329.011383,127.560181 328.423950,128.416031 
	C327.630127,130.918869 326.836273,133.421692 325.642548,136.465714 
	C320.915344,140.227585 316.417419,144.145859 315.222534,150.992294 
	C313.932220,152.017288 312.755280,153.271286 311.311371,153.986084 
	C310.361877,154.456146 308.261780,154.597687 307.981995,154.120728 
	C304.633270,148.412247 300.163666,143.160004 302.442078,135.502930 
	C303.599670,131.612595 303.153503,127.245049 303.432373,123.093231 
	C302.967468,123.030754 302.502563,122.968269 302.037659,122.905792 
	C301.124573,124.518898 300.211487,126.131996 299.139435,128.025940 
	C297.986298,127.085960 297.119171,126.379105 296.176880,124.922386 
	C297.066895,120.680115 299.893982,119.774361 305.741882,121.857933 
	C309.731689,123.279480 312.683868,121.339699 312.558014,117.278534 
	C312.483978,114.889496 312.127228,112.510452 312.004822,110.121422 
	C311.727325,104.706642 309.810120,102.894646 304.296631,102.830208 
	C303.513550,102.821053 302.725952,102.239944 301.955627,102.273323 
	C299.567657,102.376785 295.901550,101.768272 295.043762,103.020256 
	C292.439148,106.821953 290.807800,111.324150 289.115143,115.677071 
	C288.887390,116.262848 290.317169,117.801430 291.280151,118.457100 
	C292.284943,119.141243 293.653503,119.291084 294.959717,119.705170 
	C293.576996,123.681381 292.306641,127.334404 291.016968,131.762421 
	C295.905853,142.780624 295.628174,154.844040 297.422791,165.982239 
	C296.425720,164.798050 295.428650,163.613846 294.321198,162.298553 
	C291.977356,168.301437 294.877136,173.177902 300.986206,174.533249 
	C300.986206,174.533249 301.035309,174.962173 300.753967,175.617035 
	C300.136017,177.381485 299.518036,179.145920 298.313812,181.264511 
M193.954132,116.368195 
	C194.937027,114.677132 195.919937,112.986069 197.616928,111.115906 
	C199.556442,107.295982 202.423798,103.661850 203.233994,99.615784 
	C204.722839,92.180595 200.667435,86.284660 194.686996,82.618271 
	C187.286774,78.081459 179.036606,75.773735 170.622833,80.396935 
	C164.921494,83.529709 161.010818,88.430855 158.814194,94.555496 
	C157.363342,98.600777 156.593964,102.928421 154.820038,106.809998 
	C152.742294,111.356415 150.717316,116.418556 147.216690,119.713600 
	C141.221268,125.356941 134.754089,129.904022 133.698502,139.221024 
	C132.525131,149.577515 135.688171,156.604553 144.974380,161.357651 
	C142.164490,179.643112 140.092438,177.302612 153.906448,185.692276 
	C146.222992,200.792252 142.817215,216.701706 144.293304,233.619904 
	C164.060760,233.619904 183.285172,233.619904 202.957687,233.619904 
	C202.957687,231.087097 202.972000,228.948410 202.955261,226.809967 
	C202.878479,217.004562 203.247009,207.628403 207.756134,198.209442 
	C213.805573,185.573013 210.035599,174.274796 199.361649,164.205627 
	C201.069962,159.551620 196.598999,158.036087 195.122620,154.461411 
	C195.433060,152.386810 195.743515,150.312225 196.763260,148.000504 
	C200.332825,143.417267 200.742310,135.881653 197.615875,130.661270 
	C195.111771,126.479996 194.587921,121.785004 193.954132,116.368195 
z"/>
<path fill="#B1CEE2" opacity="1.000000" stroke="none" 
	d="
M199.087814,164.807220 
	C210.035599,174.274796 213.805573,185.573013 207.756134,198.209442 
	C203.247009,207.628403 202.878479,217.004562 202.955261,226.809967 
	C202.972000,228.948410 202.957687,231.087097 202.957687,233.619904 
	C183.285172,233.619904 164.060760,233.619904 144.293304,233.619904 
	C142.817215,216.701706 146.222992,200.792252 154.346420,185.378998 
	C159.140930,186.694427 163.409500,188.629639 167.869965,189.880707 
	C174.718109,191.801483 180.870331,194.540649 185.760681,200.008224 
	C188.752335,203.352997 192.973282,203.287827 196.624191,201.159317 
	C198.446350,200.096985 199.486343,197.693085 200.969131,195.781265 
	C197.488602,193.780991 194.407486,192.010269 191.291275,190.219376 
	C193.564758,188.716431 195.273071,187.587112 196.981400,186.457794 
	C196.803406,185.936996 196.625427,185.416214 196.447433,184.895432 
	C192.924759,185.214294 189.400787,185.792374 185.879776,185.774918 
	C182.722198,185.759262 179.171814,185.881805 176.492981,184.544586 
	C170.570953,181.588394 165.003769,177.878098 159.490875,174.178802 
	C158.254562,173.349228 156.774689,170.775574 157.209518,169.900040 
	C160.343109,163.590363 157.089767,161.512115 151.661575,160.153824 
	C149.647308,159.649780 147.872177,158.190125 145.800446,156.774170 
	C147.123734,150.842056 148.883087,145.355408 150.087585,139.749542 
	C151.924957,131.198090 157.720917,127.767738 165.889221,127.088898 
	C170.208435,130.317337 174.224991,133.414230 178.494598,136.110382 
	C181.406921,137.949463 183.178711,136.916412 183.263428,133.478790 
	C187.740707,138.536804 191.897339,143.387222 196.053970,148.237625 
	C195.743515,150.312225 195.433060,152.386810 194.571182,154.781219 
	C188.976196,154.418472 187.707367,158.426697 186.234711,161.771942 
	C185.928314,162.467987 187.579071,165.003586 188.446625,165.067032 
	C191.968536,165.324524 195.536697,164.949173 199.087814,164.807220 
z"/>
<path fill="#AED1BD" opacity="1.000000" stroke="none" 
	d="
M315.885925,150.769623 
	C316.417419,144.145859 320.915344,140.227585 326.148682,136.059204 
	C332.417023,133.092896 338.179199,130.533096 343.941376,127.973297 
	C348.963135,132.531387 351.126465,138.684036 350.818054,144.963226 
	C350.366150,154.162964 349.110046,163.423096 347.130280,172.422913 
	C344.592834,183.957779 341.315887,195.268784 343.816925,207.268478 
	C344.089355,208.575531 342.947083,210.177460 341.722229,211.834595 
	C331.304718,212.058273 321.626038,212.089966 311.593719,212.034271 
	C309.185760,211.308929 307.131470,210.670975 305.077148,210.033020 
	C301.231567,206.693527 303.159729,202.714066 303.911041,198.074097 
	C304.007782,196.217392 304.033630,195.159500 304.421204,194.049240 
	C309.336060,195.444107 309.846344,192.603287 308.768951,189.582718 
	C307.103973,184.914703 308.701263,181.732697 311.873260,178.480957 
	C313.636475,176.673401 314.619080,174.104370 316.142975,171.599319 
	C318.971130,169.663589 321.732880,168.164734 324.176178,166.257858 
	C324.944153,165.658508 325.514008,163.506958 325.053741,162.843979 
	C322.174316,158.696640 318.977600,154.769592 315.885925,150.769623 
z"/>
<path fill="#512E25" opacity="1.000000" stroke="none" 
	d="
M165.694412,126.786613 
	C157.720917,127.767738 151.924957,131.198090 150.087585,139.749542 
	C148.883087,145.355408 147.123734,150.842056 145.726074,157.049805 
	C145.548676,158.631866 145.258102,159.546219 144.967529,160.460556 
	C135.688171,156.604553 132.525131,149.577515 133.698502,139.221024 
	C134.754089,129.904022 141.221268,125.356941 147.216690,119.713600 
	C150.717316,116.418556 152.742294,111.356415 154.820038,106.809998 
	C156.593964,102.928421 157.363342,98.600777 158.814194,94.555496 
	C161.010818,88.430855 164.921494,83.529709 170.622833,80.396935 
	C179.036606,75.773735 187.286774,78.081459 194.686996,82.618271 
	C200.667435,86.284660 204.722839,92.180595 203.233994,99.615784 
	C202.423798,103.661850 199.556442,107.295982 196.889435,111.123169 
	C195.974579,110.246536 195.358414,109.159828 195.665787,108.509895 
	C198.980270,101.501297 195.773483,96.222000 191.936020,91.556519 
	C188.926529,94.237183 185.987671,96.680603 183.252731,99.334206 
	C179.654160,102.825768 171.975357,103.968460 167.241440,101.905281 
	C165.801910,101.277870 163.319077,101.085014 162.331360,101.910431 
	C161.263184,102.803055 160.614182,105.445122 161.161896,106.741074 
	C162.060257,108.866638 163.716019,111.316422 165.692322,112.203201 
	C169.400513,113.867065 169.495346,116.486801 168.698334,119.457420 
	C168.019638,121.987045 166.719574,124.349953 165.694412,126.786613 
z"/>
<path fill="#F1C3AB" opacity="1.000000" stroke="none" 
	d="
M165.889221,127.088898 
	C166.719574,124.349953 168.019638,121.987045 168.698334,119.457420 
	C169.495346,116.486801 169.400513,113.867065 165.692322,112.203201 
	C163.716019,111.316422 162.060257,108.866638 161.161896,106.741074 
	C160.614182,105.445122 161.263184,102.803055 162.331360,101.910431 
	C163.319077,101.085014 165.801910,101.277870 167.241440,101.905281 
	C171.975357,103.968460 179.654160,102.825768 183.252731,99.334206 
	C185.987671,96.680603 188.926529,94.237183 191.936020,91.556519 
	C195.773483,96.222000 198.980270,101.501297 195.665787,108.509895 
	C195.358414,109.159828 195.974579,110.246536 196.532379,111.212723 
	C195.919937,112.986069 194.937027,114.677132 193.612274,116.859390 
	C189.992096,123.440727 185.063171,126.120735 177.396881,125.183083 
	C179.245514,127.879120 181.094147,130.575150 182.942764,133.271194 
	C183.178711,136.916412 181.406921,137.949463 178.494598,136.110382 
	C174.224991,133.414230 170.208435,130.317337 165.889221,127.088898 
M174.275452,109.481392 
	C171.358307,112.791725 174.442688,114.316429 176.525452,115.348663 
	C177.367630,115.766052 179.322235,113.938835 180.770615,113.133057 
	C179.324188,111.753250 177.911346,110.334435 176.398422,109.031891 
	C176.144882,108.813599 175.457535,109.099197 174.275452,109.481392 
z"/>
<path fill="#F4C4AD" opacity="1.000000" stroke="none" 
	d="
M144.970947,160.909103 
	C145.258102,159.546219 145.548676,158.631866 145.913635,157.441895 
	C147.872177,158.190125 149.647308,159.649780 151.661575,160.153824 
	C157.089767,161.512115 160.343109,163.590363 157.209518,169.900040 
	C156.774689,170.775574 158.254562,173.349228 159.490875,174.178802 
	C165.003769,177.878098 170.570953,181.588394 176.492981,184.544586 
	C179.171814,185.881805 182.722198,185.759262 185.879776,185.774918 
	C189.400787,185.792374 192.924759,185.214294 196.447433,184.895432 
	C196.625427,185.416214 196.803406,185.936996 196.981400,186.457794 
	C195.273071,187.587112 193.564758,188.716431 191.291275,190.219376 
	C194.407486,192.010269 197.488602,193.780991 200.969131,195.781265 
	C199.486343,197.693085 198.446350,200.096985 196.624191,201.159317 
	C192.973282,203.287827 188.752335,203.352997 185.760681,200.008224 
	C180.870331,194.540649 174.718109,191.801483 167.869965,189.880707 
	C163.409500,188.629639 159.140930,186.694427 154.419922,185.021729 
	C140.092438,177.302612 142.164490,179.643112 144.970947,160.909103 
z"/>
<path fill="#F2C0A9" opacity="1.000000" stroke="none" 
	d="
M343.922119,127.560753 
	C338.179199,130.533096 332.417023,133.092896 326.348633,135.788605 
	C326.836273,133.421692 327.630127,130.918869 329.098145,128.213745 
	C331.864868,126.691406 333.957458,125.371353 336.343384,124.025337 
	C337.090698,123.665810 337.544647,123.332230 338.137512,122.943436 
	C338.184723,122.926086 338.092987,122.963959 337.701843,123.009949 
	C336.924652,123.331245 336.446869,123.644432 335.596405,123.970764 
	C333.139832,124.658394 331.055969,125.332863 328.972107,126.007332 
	C321.801605,125.675461 318.627197,122.822884 318.265442,115.851379 
	C317.971710,110.191116 318.082336,104.509857 318.452576,98.391235 
	C325.545105,97.590752 332.198700,97.236961 337.829742,96.937538 
	C338.757172,101.034363 339.672485,105.077583 340.367584,108.147942 
	C343.461151,107.226845 345.719208,106.554520 347.977264,105.882202 
	C351.320312,111.226120 350.808441,112.699509 345.416290,115.206047 
	C344.291443,115.728935 343.161041,117.548828 343.113403,118.811775 
	C343.009033,121.576721 343.597412,124.367798 343.922119,127.560753 
M330.987549,115.309753 
	C332.550629,114.637146 334.113708,113.964539 335.676788,113.291931 
	C334.622589,112.527229 333.613007,111.197235 332.505310,111.109718 
	C329.788727,110.895103 329.664459,112.685837 330.987549,115.309753 
z"/>
<path fill="#F7C4AC" opacity="1.000000" stroke="none" 
	d="
M315.554230,150.880951 
	C318.977600,154.769592 322.174316,158.696640 325.053741,162.843979 
	C325.514008,163.506958 324.944153,165.658508 324.176178,166.257858 
	C321.732880,168.164734 318.971130,169.663589 315.859741,171.657700 
	C314.917297,172.298065 314.447571,172.600845 313.678680,172.945038 
	C312.907593,173.314896 312.435699,173.643341 311.982269,173.986115 
	C312.000763,174.000412 311.985901,173.956024 311.684875,173.975998 
	C310.909088,174.317398 310.434387,174.638809 309.966644,174.968506 
	C309.973602,174.976776 309.968445,174.943039 309.521027,174.948212 
	C306.394165,174.956299 303.714752,174.959244 301.035309,174.962173 
	C301.035309,174.962173 300.986206,174.533249 300.860748,173.983704 
	C299.829437,171.078720 298.923584,168.723297 298.017731,166.367859 
	C295.628174,154.844040 295.905853,142.780624 291.318604,131.230286 
	C293.164185,129.022842 294.708099,127.347549 296.252045,125.672249 
	C297.119171,126.379105 297.986298,127.085960 299.139435,128.025940 
	C300.211487,126.131996 301.124573,124.518898 302.037659,122.905792 
	C302.502563,122.968269 302.967468,123.030754 303.432373,123.093231 
	C303.153503,127.245049 303.599670,131.612595 302.442078,135.502930 
	C300.163666,143.160004 304.633270,148.412247 307.981995,154.120728 
	C308.261780,154.597687 310.361877,154.456146 311.311371,153.986084 
	C312.755280,153.271286 313.932220,152.017288 315.554230,150.880951 
z"/>
<path fill="#375167" opacity="1.000000" stroke="none" 
	d="
M311.947327,212.121674 
	C321.626038,212.089966 331.304718,212.058273 341.376953,212.029633 
	C340.771484,219.342407 339.772430,226.652130 338.770508,233.982880 
	C329.836395,233.982880 321.873962,233.982880 313.395630,233.520294 
	C312.210297,228.085251 311.369629,223.126953 310.956787,218.133286 
	C310.794464,216.170120 311.588715,214.127884 311.947327,212.121674 
z"/>
<path fill="#512E25" opacity="1.000000" stroke="none" 
	d="
M348.024963,105.505249 
	C345.719208,106.554520 343.461151,107.226845 340.367584,108.147942 
	C339.672485,105.077583 338.757172,101.034363 337.829742,96.937538 
	C332.198700,97.236961 325.545105,97.590752 318.425354,97.989723 
	C314.510284,95.494400 312.616852,92.272369 315.347687,88.352173 
	C317.838104,84.777084 321.091827,82.949516 325.968933,84.780388 
	C329.749969,86.199806 333.835327,88.067497 338.166870,85.719307 
	C338.962128,85.288185 340.533020,85.763321 341.508514,86.273743 
	C348.167023,89.757721 350.863373,97.645157 348.024963,105.505249 
z"/>
<path fill="#F1C3AB" opacity="1.000000" stroke="none" 
	d="
M296.214478,125.297318 
	C294.708099,127.347549 293.164185,129.022842 291.328278,130.842773 
	C292.306641,127.334404 293.576996,123.681381 294.959717,119.705170 
	C293.653503,119.291084 292.284943,119.141243 291.280151,118.457100 
	C290.317169,117.801430 288.887390,116.262848 289.115143,115.677071 
	C290.807800,111.324150 292.439148,106.821953 295.043762,103.020256 
	C295.901550,101.768272 299.567657,102.376785 301.955627,102.273323 
	C302.725952,102.239944 303.513550,102.821053 304.296631,102.830208 
	C309.810120,102.894646 311.727325,104.706642 312.004822,110.121422 
	C312.127228,112.510452 312.483978,114.889496 312.558014,117.278534 
	C312.683868,121.339699 309.731689,123.279480 305.741882,121.857933 
	C299.893982,119.774361 297.066895,120.680115 296.214478,125.297318 
z"/>
<path fill="#512E25" opacity="1.000000" stroke="none" 
	d="
M183.263428,133.478790 
	C181.094147,130.575150 179.245514,127.879120 177.396881,125.183083 
	C185.063171,126.120735 189.992096,123.440727 193.583740,117.236191 
	C194.587921,121.785004 195.111771,126.479996 197.615875,130.661270 
	C200.742310,135.881653 200.332825,143.417267 196.408615,148.119064 
	C191.897339,143.387222 187.740707,138.536804 183.263428,133.478790 
z"/>
<path fill="#284053" opacity="1.000000" stroke="none" 
	d="
M311.593689,212.034271 
	C311.588715,214.127884 310.794464,216.170120 310.956787,218.133286 
	C311.369629,223.126953 312.210297,228.085251 312.929688,233.455414 
	C310.390991,233.853134 307.802307,233.853134 304.366760,233.853134 
	C304.366760,228.176849 304.366760,222.646561 304.486328,216.488968 
	C304.727325,215.516083 304.651215,215.221512 304.377563,214.977951 
	C304.542511,213.599136 304.707489,212.220322 304.974792,210.437256 
	C307.131470,210.670975 309.185760,211.308929 311.593689,212.034271 
z"/>
<path fill="#F2C0A9" opacity="1.000000" stroke="none" 
	d="
M199.224731,164.506409 
	C195.536697,164.949173 191.968536,165.324524 188.446625,165.067032 
	C187.579071,165.003586 185.928314,162.467987 186.234711,161.771942 
	C187.707367,158.426697 188.976196,154.418472 194.397583,155.138489 
	C196.598999,158.036087 201.069962,159.551620 199.224731,164.506409 
z"/>
<path fill="#D7DFE3" opacity="1.000000" stroke="none" 
	d="
M304.059479,194.101593 
	C304.033630,195.159500 304.007782,196.217392 303.944458,197.672211 
	C297.167480,198.384293 297.159943,192.204269 294.785065,188.430923 
	C292.289032,184.465057 297.562653,183.884964 298.649780,181.124237 
	C298.985779,180.983963 299.070099,181.053421 299.046387,181.449127 
	C300.701599,185.930420 302.380554,190.016006 304.059479,194.101593 
z"/>
<path fill="#F3A184" opacity="1.000000" stroke="none" 
	d="
M297.720276,166.175049 
	C298.923584,168.723297 299.829437,171.078720 300.868286,173.767975 
	C294.877136,173.177902 291.977356,168.301437 294.321198,162.298553 
	C295.428650,163.613846 296.425720,164.798050 297.720276,166.175049 
z"/>
<path fill="#D7DFE3" opacity="1.000000" stroke="none" 
	d="
M300.894653,175.289612 
	C303.714752,174.959244 306.394165,174.956299 309.310852,175.241180 
	C306.055420,177.370483 302.562775,179.211960 299.070099,181.053436 
	C299.070099,181.053421 298.985779,180.983963 298.942932,180.947174 
	C299.518036,179.145920 300.136017,177.381485 300.894653,175.289612 
z"/>
<path fill="#F3A184" opacity="1.000000" stroke="none" 
	d="
M328.974609,126.340248 
	C331.055969,125.332863 333.139832,124.658394 335.615845,123.995300 
	C336.008026,124.006691 336.050049,124.051300 336.050049,124.051300 
	C333.957458,125.371353 331.864868,126.691406 329.400391,128.007568 
	C329.011383,127.560181 328.994263,127.116676 328.974609,126.340248 
z"/>
<path fill="#AED1BD" opacity="1.000000" stroke="none" 
	d="
M304.231873,215.166260 
	C304.651215,215.221512 304.727325,215.516083 304.455994,216.049744 
	C304.048950,215.989136 303.975647,215.694717 304.231873,215.166260 
z"/>
<path fill="#FAFBFB" opacity="1.000000" stroke="none" 
	d="
M299.046387,181.449127 
	C302.562775,179.211960 306.055420,177.370483 309.758240,175.236023 
	C309.968445,174.943039 309.973602,174.976776 310.272888,174.963333 
	C311.043427,174.618607 311.514679,174.287323 311.985901,173.956024 
	C311.985901,173.956024 312.000763,174.000412 312.291840,173.976715 
	C313.047913,173.603226 313.512878,173.253433 313.977844,172.903625 
	C314.447571,172.600845 314.917297,172.298065 315.670258,171.936920 
	C314.619080,174.104370 313.636475,176.673401 311.873260,178.480957 
	C308.701263,181.732697 307.103973,184.914703 308.768951,189.582718 
	C309.846344,192.603287 309.336060,195.444107 304.421204,194.049240 
	C302.380554,190.016006 300.701599,185.930420 299.046387,181.449127 
z"/>
<path fill="#F3A184" opacity="1.000000" stroke="none" 
	d="
M174.623047,109.316681 
	C175.457535,109.099197 176.144882,108.813599 176.398422,109.031891 
	C177.911346,110.334435 179.324188,111.753250 180.770615,113.133057 
	C179.322235,113.938835 177.367630,115.766052 176.525452,115.348663 
	C174.442688,114.316429 171.358307,112.791725 174.623047,109.316681 
z"/>
<path fill="#F3A184" opacity="1.000000" stroke="none" 
	d="
M330.733093,115.027802 
	C329.664459,112.685837 329.788727,110.895103 332.505310,111.109718 
	C333.613007,111.197235 334.622589,112.527229 335.676788,113.291931 
	C334.113708,113.964539 332.550629,114.637146 330.733093,115.027802 
z"/>
<path fill="#F3A184" opacity="1.000000" stroke="none" 
	d="
M337.998596,122.998657 
	C337.544647,123.332230 337.090698,123.665810 336.343384,124.025345 
	C336.050049,124.051300 336.008026,124.006691 335.988586,123.982147 
	C336.446869,123.644432 336.924652,123.331245 337.701202,123.009033 
	C338.000000,123.000000 337.998596,122.998657 337.998596,122.998657 
z"/>
<path fill="#F3A184" opacity="1.000000" stroke="none" 
	d="
M338.000610,123.000916 
	C338.092987,122.963959 338.184723,122.926086 338.137512,122.943436 
	C337.998596,122.998657 338.000000,123.000000 338.000610,123.000916 
z"/>
<path fill="#D7DFE3" opacity="1.000000" stroke="none" 
	d="
M313.678680,172.945038 
	C313.512878,173.253433 313.047913,173.603226 312.273346,173.962418 
	C312.435699,173.643341 312.907593,173.314896 313.678680,172.945038 
z"/>
<path fill="#D7DFE3" opacity="1.000000" stroke="none" 
	d="
M311.684875,173.975998 
	C311.514679,174.287323 311.043427,174.618607 310.265930,174.955048 
	C310.434387,174.638809 310.909088,174.317398 311.684875,173.975998 
z"/>
</svg>